<svg xmlns="http://www.w3.org/2000/svg" viewBox="0 0 720 520" role="img" aria-labelledby="title desc">
  <title id="title">AI healthcare illustration</title>
  <desc id="desc">Abstract medical imaging panel with neural network nodes and cellular shapes.</desc>
  <defs>
    <linearGradient id="panel" x1="0" x2="1" y1="0" y2="1">
      <stop offset="0" stop-color="#ffffff"/>
      <stop offset="1" stop-color="#e7f7f6"/>
    </linearGradient>
    <linearGradient id="cell" x1="0" x2="1" y1="0" y2="1">
      <stop offset="0" stop-color="#ef7f8f"/>
      <stop offset="1" stop-color="#238b86"/>
    </linearGradient>
  </defs>
  <rect width="720" height="520" rx="28" fill="url(#panel)"/>
  <circle cx="590" cy="90" r="68" fill="#ffe9ed"/>
  <circle cx="128" cy="420" r="90" fill="#d9f1ef"/>
  <g fill="none" stroke="#a7cdca" stroke-width="3" opacity=".75">
    <path d="M168 154C251 78 343 258 430 163s116-3 155 42"/>
    <path d="M176 300c88-81 168 38 242-35s120-20 171 45"/>
  </g>
  <g>
    <circle cx="170" cy="155" r="12" fill="#238b86"/>
    <circle cx="292" cy="150" r="12" fill="#ef7f8f"/>
    <circle cx="430" cy="163" r="12" fill="#238b86"/>
    <circle cx="585" cy="205" r="12" fill="#ef7f8f"/>
    <circle cx="176" cy="300" r="12" fill="#ef7f8f"/>
    <circle cx="313" cy="282" r="12" fill="#238b86"/>
    <circle cx="418" cy="265" r="12" fill="#ef7f8f"/>
    <circle cx="589" cy="310" r="12" fill="#238b86"/>
  </g>
  <g transform="translate(230 140)">
    <rect x="0" y="0" width="260" height="260" rx="24" fill="#fff" stroke="#d8e9e8" stroke-width="3"/>
    <circle cx="84" cy="92" r="44" fill="#ffe9ed"/>
    <circle cx="82" cy="91" r="18" fill="#ef7f8f"/>
    <circle cx="167" cy="128" r="58" fill="#d9f1ef"/>
    <circle cx="167" cy="128" r="22" fill="#238b86"/>
    <circle cx="112" cy="188" r="34" fill="#f4ccda"/>
    <circle cx="112" cy="188" r="13" fill="#a74d69"/>
    <path d="M42 42h176M42 222h176" stroke="#d8e9e8" stroke-width="3" stroke-linecap="round"/>
  </g>
  <g transform="translate(82 92)" fill="#193135">
    <rect x="0" y="0" width="124" height="38" rx="19" fill="#ffffff" opacity=".9"/>
    <text x="20" y="25" font-family="Arial, sans-serif" font-size="16" font-weight="700">AI Scan</text>
  </g>
</svg>
